<svg width="40" height="40" viewBox="0 0 40 40" fill="none" xmlns="http://www.w3.org/2000/svg">
<path fill-rule="evenodd" clip-rule="evenodd" d="M18.8875 3.16298C18.8873 3.16313 18.8878 3.16283 18.8875 3.16298L5.5561 9.82873L5.55425 9.82965C4.7048 10.2517 4.16741 11.1182 4.16675 12.0667V27.9392C4.16013 28.889 4.69235 29.7605 5.54027 30.1885C5.53978 30.1882 5.54075 30.1887 5.54027 30.1885L18.8728 36.8547C19.577 37.207 20.4063 37.2072 21.1105 36.8548L34.444 30.188L34.4458 30.1872C35.2955 29.765 35.8328 28.8983 35.8333 27.9497V12.0672C35.8328 11.1185 35.2955 10.2518 34.4458 9.82965L34.444 9.82873L21.1125 3.16298C21.1123 3.16283 21.1128 3.16315 21.1125 3.16298C20.4123 2.81538 19.5878 2.81537 18.8875 3.16298ZM18.1458 1.67043C19.3138 1.09005 20.6863 1.09005 21.8542 1.67043L21.8562 1.67135L35.1875 8.3371C35.1873 8.33697 35.1878 8.33723 35.1875 8.3371C36.603 9.04085 37.4992 10.4854 37.5 12.0663V27.95C37.4992 29.5308 36.604 30.9753 35.1887 31.6792C35.1883 31.6793 35.189 31.679 35.1887 31.6792L21.8563 38.3453C20.6828 38.9325 19.301 38.9325 18.1273 38.3453L4.79406 31.6787L4.79176 31.6775C3.37808 30.9653 2.49021 29.5135 2.50008 27.9307V12.0667C2.50091 10.4859 3.3962 9.04138 4.81158 8.3376C4.81125 8.33777 4.81191 8.33743 4.81158 8.3376L18.144 1.67135L18.1458 1.67043Z" fill="#1C1C1C"/>
<path fill-rule="evenodd" clip-rule="evenodd" d="M3.1221 9.89402C3.32792 9.48238 3.82848 9.31552 4.24013 9.52135L20.0007 17.4017L35.7614 9.52135C36.1731 9.31552 36.6736 9.48238 36.8794 9.89402C37.0852 10.3057 36.9184 10.8062 36.5067 11.0121L20.3734 19.0787C20.1389 19.196 19.8627 19.196 19.6281 19.0787L3.49478 11.0121C3.08313 10.8062 2.91627 10.3057 3.1221 9.89402Z" fill="#1C1C1C"/>
<path fill-rule="evenodd" clip-rule="evenodd" d="M20.0001 17.5C20.4602 17.5 20.8334 17.8732 20.8334 18.3333V37.9333C20.8334 38.3935 20.4602 38.7667 20.0001 38.7667C19.5399 38.7667 19.1667 38.3935 19.1667 37.9333V18.3333C19.1667 17.8732 19.5399 17.5 20.0001 17.5Z" fill="#1C1C1C"/>
<path fill-rule="evenodd" clip-rule="evenodd" d="M10.9214 5.46063C11.1272 5.04898 11.6278 4.88213 12.0395 5.08795L28.7061 13.4213C29.1178 13.6271 29.2846 14.1277 29.0788 14.5393C28.8729 14.951 28.3724 15.1178 27.9608 14.912L11.2941 6.57867C10.8824 6.37285 10.7156 5.87228 10.9214 5.46063Z" fill="#1C1C1C"/>
</svg>
