<svg width="80" height="83" viewBox="0 0 80 83" fill="none" xmlns="http://www.w3.org/2000/svg">
<g clip-path="url(#clip0_6_75)">
<path d="M55.7618 59.719C55.7548 64.616 57.362 69.3894 60.3532 73.355C55.6714 74.218 50.8289 73.7415 46.4266 71.9848C48.9221 68.1164 50.1826 63.6303 50.0521 59.0813C49.9216 54.5322 48.406 50.1196 45.6925 46.389C50.0411 45.8725 54.1626 44.2333 57.6185 41.6459C61.0744 39.0586 63.7354 35.6198 65.3185 31.6954C66.3427 34.24 67.8267 36.5909 69.7022 38.6398C65.5341 40.5187 62.0093 43.4991 59.5405 47.2322C57.0717 50.9652 55.761 55.2965 55.7618 59.719Z" fill="#FF7900"/>
<path d="M80 50.4931C80.0006 55.9028 78.0398 61.1438 74.4546 65.3158C70.8693 69.4878 65.8833 72.3303 60.3532 73.355C58.2646 70.5797 56.8391 67.3959 56.1784 64.0307C55.5177 60.6655 55.6381 57.2017 56.5309 53.8863C57.4238 50.571 59.0672 47.4856 61.3438 44.8502C63.6205 42.2148 66.4745 40.0942 69.7022 38.6398C67.8267 36.5909 66.3427 34.24 65.3186 31.6954C65.6196 30.9533 65.8785 30.1961 66.0942 29.4272C70.2537 31.3099 73.7699 34.2903 76.2322 38.0204C78.6945 41.7505 80.0013 46.0764 80 50.4931Z" fill="#A7A1E5"/>
<path d="M46.4266 71.9848C43.7741 76.0977 39.8534 79.3146 35.2095 81.1886C30.5657 83.0625 25.4294 83.5002 20.5146 82.4409C15.5998 81.3816 11.1507 78.8779 7.78565 75.2779C4.42062 71.6778 2.30688 67.1603 1.73822 62.3531C1.63387 61.4698 1.583 60.5814 1.58587 59.6924C1.5868 58.5528 1.67242 57.4147 1.8421 56.2868C5.64661 58.5157 10.0173 59.6941 14.4737 59.6924C17.6656 59.6963 20.8267 59.0929 23.7745 57.9169C26.7222 56.741 29.3983 55.0159 31.6482 52.8412C32.0873 57.0149 33.6924 60.9972 36.2938 64.367C38.8951 67.7367 42.3961 70.3688 46.4266 71.9848Z" fill="#FF7900"/>
<path d="M66.9529 23.281C66.9554 25.3574 66.6665 27.4248 66.0942 29.4272C65.5263 29.1677 64.9515 28.9349 64.356 28.7221C59.985 27.128 55.2274 26.7823 50.6564 27.7265C46.0855 28.6706 41.8965 30.8644 38.5942 34.0434C38.0907 29.312 36.0905 24.8421 32.8628 21.2353C29.6351 17.6284 25.3347 15.0577 20.5402 13.8688C22.7897 8.99178 26.7147 5.00466 31.6585 2.57451C36.6023 0.144352 42.265 -0.581428 47.6992 0.518582C53.1334 1.61859 58.0095 4.47767 61.5118 8.61749C65.014 12.7573 66.93 17.9268 66.9391 23.261L66.9529 23.281Z" fill="#FF7900"/>
<path d="M66.0942 29.4272C65.8785 30.1961 65.6195 30.9533 65.3186 31.6954C63.7355 35.6198 61.0744 39.0586 57.6185 41.6459C54.1626 44.2333 50.0411 45.8725 45.6925 46.389C48.406 50.1196 49.9217 54.5322 50.0521 59.0812C50.1826 63.6303 48.9221 68.1164 46.4266 71.9848C42.3999 70.3709 38.9015 67.743 36.3004 64.3783C33.6994 61.0136 32.0921 57.0369 31.6482 52.8678C29.3983 55.0425 26.7222 56.7676 23.7745 57.9435C20.8267 59.1195 17.6656 59.7229 14.4737 59.719C12.427 59.7229 10.3882 59.4747 8.4072 58.9807C12.0827 56.3602 14.9105 52.7936 16.5634 48.6936C18.2164 44.5936 18.6268 40.1279 17.7472 35.8132C16.8676 31.4985 14.734 27.5112 11.5932 24.3128C8.4525 21.1144 4.43304 18.8356 0 17.7401C3.43795 15.2752 7.49542 13.7309 11.758 13.265C16.0206 12.799 20.3356 13.4281 24.2623 15.088C28.189 16.7479 31.5866 19.3791 34.1082 22.7128C36.6298 26.0466 38.185 29.9635 38.615 34.0634C41.9173 30.8844 46.1063 28.6906 50.6772 27.7464C55.2481 26.8022 60.0058 27.148 64.3767 28.742C64.9308 28.9349 65.5263 29.1677 66.0942 29.4272Z" fill="#543D2A"/>
</g>
<defs>
<clipPath id="clip0_6_75">
<rect width="80" height="83" fill="white"/>
</clipPath>
</defs>
</svg>
