<svg width="40" height="38" viewBox="0 0 40 38" fill="none" xmlns="http://www.w3.org/2000/svg">
<path fill-rule="evenodd" clip-rule="evenodd" d="M9.5 33.25C9.5 31.0639 11.2722 29.2917 13.4583 29.2917C15.6445 29.2917 17.4167 31.0639 17.4167 33.25C17.4167 35.4361 15.6445 37.2083 13.4583 37.2083C11.2722 37.2083 9.5 35.4361 9.5 33.25ZM13.4583 30.875C12.1467 30.875 11.0833 31.9384 11.0833 33.25C11.0833 34.5616 12.1467 35.625 13.4583 35.625C14.77 35.625 15.8333 34.5616 15.8333 33.25C15.8333 31.9384 14.77 30.875 13.4583 30.875Z" fill="#1C1C1C"/>
<path fill-rule="evenodd" clip-rule="evenodd" d="M28.5 33.25C28.5 31.0639 30.2722 29.2917 32.4583 29.2917C34.6444 29.2917 36.4167 31.0639 36.4167 33.25C36.4167 35.4361 34.6444 37.2083 32.4583 37.2083C30.2722 37.2083 28.5 35.4361 28.5 33.25ZM32.4583 30.875C31.1467 30.875 30.0833 31.9384 30.0833 33.25C30.0833 34.5616 31.1467 35.625 32.4583 35.625C33.77 35.625 34.8333 34.5616 34.8333 33.25C34.8333 31.9384 33.77 30.875 32.4583 30.875Z" fill="#1C1C1C"/>
<path fill-rule="evenodd" clip-rule="evenodd" d="M2.37492 0.791666C1.9377 0.791666 1.58325 1.14611 1.58325 1.58333C1.58325 2.02055 1.9377 2.375 2.37492 2.375H8.04406C9.24315 9.16983 10.4552 15.9351 11.478 22.7539C11.7686 24.6916 13.4332 26.125 15.3925 26.125H31.4444C33.3313 26.125 34.9558 24.7931 35.3258 22.943L37.6046 11.5491C37.8986 10.0795 36.7744 8.70833 35.2758 8.70833H12.129C11.6493 8.70833 11.2067 8.84927 10.8368 9.08981L9.48787 1.44575C9.42112 1.06745 9.0924 0.791666 8.70825 0.791666H2.37492ZM11.3461 11.2008C11.2743 10.7221 11.645 10.2917 12.129 10.2917H35.2758C35.7753 10.2917 36.15 10.7487 36.0521 11.2386L33.7732 22.6325C33.5512 23.7426 32.5765 24.5417 31.4444 24.5417H15.3925C14.2169 24.5417 13.2182 23.6816 13.0438 22.519L11.3461 11.2008Z" fill="#1C1C1C"/>
</svg>
